<mxfile host="app.diagrams.net" modified="2021-05-18T14:51:40.077Z" agent="5.0 (Windows NT 6.1; Win64; x64) AppleWebKit/537.36 (KHTML, like Gecko) Chrome/90.0.4430.212 Safari/537.36" etag="OqVsEw_YHBDVPVoCEl9s" version="14.6.13" type="github">
  <diagram id="-sPflGYBX8upJjDpWGVU" name="Page-1">
    <mxGraphModel dx="868" dy="393" grid="1" gridSize="10" guides="1" tooltips="1" connect="1" arrows="1" fold="1" page="0" pageScale="1" pageWidth="827" pageHeight="1169" background="none" math="0" shadow="0">
      <root>
        <mxCell id="0" />
        <mxCell id="1" parent="0" />
        <mxCell id="eiOYExu8z7UEQSUHy1IL-17" style="edgeStyle=none;rounded=0;orthogonalLoop=1;jettySize=auto;html=1;" edge="1" parent="1" source="qaa2JaGgNFS025Txkc6Y-13">
          <mxGeometry relative="1" as="geometry">
            <mxPoint x="330" y="360" as="targetPoint" />
            <Array as="points">
              <mxPoint x="80" y="360" />
            </Array>
          </mxGeometry>
        </mxCell>
        <mxCell id="qaa2JaGgNFS025Txkc6Y-13" value="visiteur" style="shape=umlActor;verticalLabelPosition=bottom;verticalAlign=top;html=1;" parent="1" vertex="1">
          <mxGeometry x="10" y="335" width="30" height="55" as="geometry" />
        </mxCell>
        <mxCell id="eiOYExu8z7UEQSUHy1IL-1" value="consulter les catalogues" style="ellipse;whiteSpace=wrap;html=1;" vertex="1" parent="1">
          <mxGeometry x="330" y="410" width="140" height="70" as="geometry" />
        </mxCell>
        <mxCell id="eiOYExu8z7UEQSUHy1IL-33" style="edgeStyle=none;rounded=0;orthogonalLoop=1;jettySize=auto;html=1;entryX=1;entryY=0.5;entryDx=0;entryDy=0;" edge="1" parent="1" source="eiOYExu8z7UEQSUHy1IL-7" target="eiOYExu8z7UEQSUHy1IL-13">
          <mxGeometry relative="1" as="geometry" />
        </mxCell>
        <mxCell id="eiOYExu8z7UEQSUHy1IL-7" value="admin" style="shape=umlActor;verticalLabelPosition=bottom;verticalAlign=top;html=1;" vertex="1" parent="1">
          <mxGeometry x="770" y="330" width="20" height="60" as="geometry" />
        </mxCell>
        <mxCell id="eiOYExu8z7UEQSUHy1IL-9" value="s&#39;inscrire" style="ellipse;whiteSpace=wrap;html=1;" vertex="1" parent="1">
          <mxGeometry x="330" y="320" width="140" height="70" as="geometry" />
        </mxCell>
        <mxCell id="eiOYExu8z7UEQSUHy1IL-10" value="gerer son compte&amp;nbsp;" style="ellipse;whiteSpace=wrap;html=1;" vertex="1" parent="1">
          <mxGeometry x="340" y="500" width="140" height="70" as="geometry" />
        </mxCell>
        <mxCell id="eiOYExu8z7UEQSUHy1IL-12" value="commander" style="ellipse;whiteSpace=wrap;html=1;" vertex="1" parent="1">
          <mxGeometry x="340" y="580" width="140" height="70" as="geometry" />
        </mxCell>
        <mxCell id="eiOYExu8z7UEQSUHy1IL-13" value="gÃ©rer les articles" style="ellipse;whiteSpace=wrap;html=1;" vertex="1" parent="1">
          <mxGeometry x="565" y="380" width="140" height="70" as="geometry" />
        </mxCell>
        <mxCell id="eiOYExu8z7UEQSUHy1IL-14" value="authentification" style="ellipse;whiteSpace=wrap;html=1;" vertex="1" parent="1">
          <mxGeometry x="700" y="630" width="140" height="70" as="geometry" />
        </mxCell>
        <mxCell id="eiOYExu8z7UEQSUHy1IL-37" value="gerer compte client" style="ellipse;whiteSpace=wrap;html=1;" vertex="1" parent="1">
          <mxGeometry x="565" y="470" width="140" height="70" as="geometry" />
        </mxCell>
        <mxCell id="eiOYExu8z7UEQSUHy1IL-38" value="gerer les commandes" style="ellipse;whiteSpace=wrap;html=1;" vertex="1" parent="1">
          <mxGeometry x="705" y="500" width="140" height="70" as="geometry" />
        </mxCell>
        <mxCell id="eiOYExu8z7UEQSUHy1IL-42" value="" style="endArrow=open;endFill=1;endSize=12;html=1;entryX=0.05;entryY=0.229;entryDx=0;entryDy=0;entryPerimeter=0;" edge="1" parent="1" target="eiOYExu8z7UEQSUHy1IL-1">
          <mxGeometry width="160" relative="1" as="geometry">
            <mxPoint x="40" y="360" as="sourcePoint" />
            <mxPoint x="200" y="380" as="targetPoint" />
          </mxGeometry>
        </mxCell>
        <mxCell id="eiOYExu8z7UEQSUHy1IL-44" value="client" style="shape=umlActor;verticalLabelPosition=bottom;verticalAlign=top;html=1;" vertex="1" parent="1">
          <mxGeometry x="10" y="510" width="40" height="60" as="geometry" />
        </mxCell>
        <mxCell id="eiOYExu8z7UEQSUHy1IL-46" value="" style="endArrow=open;endFill=1;endSize=12;html=1;" edge="1" parent="1">
          <mxGeometry width="160" relative="1" as="geometry">
            <mxPoint x="40" y="539.5" as="sourcePoint" />
            <mxPoint x="340" y="540" as="targetPoint" />
          </mxGeometry>
        </mxCell>
        <mxCell id="eiOYExu8z7UEQSUHy1IL-48" value="" style="endArrow=classic;html=1;entryX=0;entryY=0.5;entryDx=0;entryDy=0;" edge="1" parent="1" target="eiOYExu8z7UEQSUHy1IL-12">
          <mxGeometry width="50" height="50" relative="1" as="geometry">
            <mxPoint x="50" y="560" as="sourcePoint" />
            <mxPoint x="260" y="570" as="targetPoint" />
            <Array as="points">
              <mxPoint x="40" y="540" />
            </Array>
          </mxGeometry>
        </mxCell>
        <mxCell id="eiOYExu8z7UEQSUHy1IL-50" style="edgeStyle=none;rounded=0;orthogonalLoop=1;jettySize=auto;html=1;entryX=1;entryY=0.5;entryDx=0;entryDy=0;" edge="1" parent="1">
          <mxGeometry relative="1" as="geometry">
            <mxPoint x="770" y="370" as="sourcePoint" />
            <mxPoint x="690" y="479.9966666666666" as="targetPoint" />
          </mxGeometry>
        </mxCell>
        <mxCell id="eiOYExu8z7UEQSUHy1IL-53" style="edgeStyle=none;rounded=0;orthogonalLoop=1;jettySize=auto;html=1;entryX=0.457;entryY=-0.043;entryDx=0;entryDy=0;entryPerimeter=0;" edge="1" parent="1" target="eiOYExu8z7UEQSUHy1IL-38">
          <mxGeometry relative="1" as="geometry">
            <mxPoint x="760" y="390" as="sourcePoint" />
            <mxPoint x="690" y="587.6666666666666" as="targetPoint" />
          </mxGeometry>
        </mxCell>
        <mxCell id="eiOYExu8z7UEQSUHy1IL-61" value="&amp;lt;includes&amp;gt;" style="html=1;verticalAlign=bottom;endArrow=open;dashed=1;endSize=8;exitX=0;exitY=1;exitDx=0;exitDy=0;" edge="1" parent="1" source="eiOYExu8z7UEQSUHy1IL-14">
          <mxGeometry x="-0.151" y="3" relative="1" as="geometry">
            <mxPoint x="560" y="620" as="sourcePoint" />
            <mxPoint x="480" y="620" as="targetPoint" />
            <Array as="points" />
            <mxPoint as="offset" />
          </mxGeometry>
        </mxCell>
        <mxCell id="eiOYExu8z7UEQSUHy1IL-65" value="&amp;lt;includes&amp;gt;" style="html=1;verticalAlign=bottom;endArrow=open;dashed=1;endSize=8;exitX=0.036;exitY=0.257;exitDx=0;exitDy=0;exitPerimeter=0;entryX=0.929;entryY=0.786;entryDx=0;entryDy=0;entryPerimeter=0;" edge="1" parent="1" source="eiOYExu8z7UEQSUHy1IL-14" target="eiOYExu8z7UEQSUHy1IL-10">
          <mxGeometry relative="1" as="geometry">
            <mxPoint x="660" y="600" as="sourcePoint" />
            <mxPoint x="580" y="600" as="targetPoint" />
          </mxGeometry>
        </mxCell>
        <mxCell id="eiOYExu8z7UEQSUHy1IL-66" value="&amp;lt;includes&amp;gt;" style="html=1;verticalAlign=bottom;endArrow=open;dashed=1;endSize=8;entryX=0.607;entryY=1.014;entryDx=0;entryDy=0;entryPerimeter=0;exitX=0;exitY=0;exitDx=0;exitDy=0;" edge="1" parent="1" source="eiOYExu8z7UEQSUHy1IL-14" target="eiOYExu8z7UEQSUHy1IL-37">
          <mxGeometry x="0.0976" y="-8" relative="1" as="geometry">
            <mxPoint x="760" y="630" as="sourcePoint" />
            <mxPoint x="680" y="630" as="targetPoint" />
            <Array as="points">
              <mxPoint x="660" y="550" />
            </Array>
            <mxPoint as="offset" />
          </mxGeometry>
        </mxCell>
        <mxCell id="eiOYExu8z7UEQSUHy1IL-67" value="&amp;lt;includes&amp;gt;" style="html=1;verticalAlign=bottom;endArrow=open;dashed=1;endSize=8;exitX=0.686;exitY=0.029;exitDx=0;exitDy=0;exitPerimeter=0;" edge="1" parent="1" source="eiOYExu8z7UEQSUHy1IL-14">
          <mxGeometry x="-0.7896" y="-17" relative="1" as="geometry">
            <mxPoint x="770" y="605" as="sourcePoint" />
            <mxPoint x="623" y="430" as="targetPoint" />
            <Array as="points">
              <mxPoint x="750" y="580" />
            </Array>
            <mxPoint as="offset" />
          </mxGeometry>
        </mxCell>
        <mxCell id="eiOYExu8z7UEQSUHy1IL-74" value="&amp;lt;includes&amp;gt;" style="html=1;verticalAlign=bottom;endArrow=open;dashed=1;endSize=8;" edge="1" parent="1" source="eiOYExu8z7UEQSUHy1IL-14">
          <mxGeometry x="0.1507" y="11" relative="1" as="geometry">
            <mxPoint x="850" y="614.5" as="sourcePoint" />
            <mxPoint x="830" y="560" as="targetPoint" />
            <Array as="points">
              <mxPoint x="820" y="631" />
              <mxPoint x="811" y="650" />
              <mxPoint x="820" y="620" />
              <mxPoint x="830" y="560" />
            </Array>
            <mxPoint as="offset" />
          </mxGeometry>
        </mxCell>
      </root>
    </mxGraphModel>
  </diagram>
</mxfile>
